<?xml version="1.0" standalone="no"?>
<!DOCTYPE svg PUBLIC "-//W3C//DTD SVG 20010904//EN"
 "http://www.w3.org/TR/2001/REC-SVG-20010904/DTD/svg10.dtd">
<svg version="1.0" xmlns="http://www.w3.org/2000/svg"
 width="252.000000pt" height="305.000000pt" viewBox="0 0 252.000000 305.000000"
 preserveAspectRatio="xMidYMid meet">

<g transform="translate(0.000000,305.000000) scale(0.100000,-0.100000)"
fill="#000000" stroke="none">
<path d="M1101 2904 c-189 -51 -348 -209 -405 -403 -25 -86 -21 -236 9 -351
31 -112 98 -258 159 -344 60 -85 162 -178 233 -212 51 -26 69 -29 153 -29 83
0 102 3 151 28 159 77 311 289 386 537 22 71 26 106 27 210 1 144 -18 216 -83
317 -79 121 -232 229 -360 253 -76 14 -206 11 -270 -6z m-121 -389 c91 -67
286 -90 513 -61 118 15 130 15 162 0 45 -21 73 -68 86 -142 9 -52 8 -72 -10
-144 -28 -107 -106 -265 -172 -346 -169 -208 -371 -236 -548 -77 -130 118
-245 341 -258 501 -9 98 44 248 115 326 l35 39 21 -35 c12 -19 37 -47 56 -61z"/>
<path d="M722 1620 c-233 -61 -404 -224 -487 -465 -11 -31 -20 -93 -23 -166
-6 -153 11 -215 76 -280 78 -77 195 -108 404 -109 l106 0 7 43 c29 191 155
336 330 381 252 66 509 -99 551 -354 l10 -65 150 0 c125 1 161 5 221 23 96 30
151 72 188 147 25 50 30 73 33 156 13 325 -199 609 -516 690 -97 25 -99 24
-107 -10 -15 -71 -114 -142 -247 -178 -78 -21 -251 -23 -328 -4 -132 33 -243
110 -256 177 -7 40 -11 40 -112 14z"/>
<path d="M1112 870 c-65 -33 -109 -76 -144 -143 -33 -61 -33 -203 0 -264 81
-153 240 -216 393 -156 l35 14 110 -109 c145 -145 166 -155 223 -106 24 20 31
34 31 61 0 33 -12 48 -119 157 l-120 121 16 35 c10 22 16 64 17 115 0 72 -3
86 -33 143 -59 109 -147 161 -272 162 -65 0 -85 -4 -137 -30z m180 -110 c136
-38 172 -203 65 -297 -109 -96 -277 -16 -277 132 0 53 16 89 57 126 47 44 94
56 155 39z"/>
</g>
</svg>
